<?xml version="1.0" encoding="UTF-8" ?>
<!DOCTYPE svg PUBLIC "-//W3C//DTD SVG 1.1//EN" "http://www.w3.org/Graphics/SVG/1.1/DTD/svg11.dtd">
<svg width="539pt" height="539pt" viewBox="0 0 539 539" version="1.1" xmlns="http://www.w3.org/2000/svg">
<g id="#000000ff">
</g>
<g id="#fc92b0ff">
<path fill="#fc92b0" opacity="1.00" d=" M 252.45 5.83 C 269.24 5.08 286.14 5.20 302.80 7.53 C 362.04 14.85 418.31 43.34 459.52 86.48 C 478.78 106.40 494.84 129.42 506.75 154.45 C 517.93 176.25 524.60 200.06 529.25 224.02 C 531.06 232.77 531.40 241.72 532.40 250.58 C 533.20 271.47 533.02 292.52 529.45 313.17 C 525.62 333.28 520.43 353.23 512.35 372.08 C 507.56 382.71 502.32 393.14 496.56 403.29 C 469.55 448.51 429.10 485.84 381.22 508.03 C 363.77 516.72 345.01 522.39 326.05 526.71 C 300.61 532.75 274.20 533.74 248.19 532.10 C 226.67 530.73 205.54 525.83 185.04 519.29 C 169.25 514.42 154.41 507.01 139.87 499.25 C 97.50 475.64 62.20 439.85 38.51 397.58 C 20.64 365.49 9.46 329.62 6.35 293.01 C 4.93 281.73 5.51 270.33 5.47 259.00 C 7.68 188.04 40.65 118.81 93.82 71.86 C 137.47 33.13 194.17 9.37 252.45 5.83 M 350.22 115.06 C 342.02 129.94 335.98 145.91 330.41 161.93 C 311.56 154.46 291.36 149.75 271.00 150.31 C 249.41 149.73 228.06 154.57 207.86 161.89 C 200.78 140.58 190.05 119.94 174.04 103.97 C 171.67 101.97 169.65 99.08 166.51 98.32 C 153.69 114.80 145.22 134.34 140.11 154.50 C 135.50 171.29 133.12 188.62 131.70 205.95 C 131.38 220.97 131.02 236.05 132.57 251.02 C 134.72 270.73 138.90 290.37 146.64 308.68 C 153.71 326.71 164.05 343.46 177.52 357.42 C 178.22 351.56 175.63 344.79 179.77 339.78 C 184.94 333.50 193.13 330.33 201.06 329.55 C 210.50 329.09 220.16 331.51 228.13 336.65 C 233.26 339.77 238.45 342.98 242.53 347.47 C 247.69 352.36 250.98 358.93 256.52 363.44 C 260.06 366.24 264.84 365.37 268.99 366.15 C 273.89 366.50 279.63 366.04 283.15 362.17 C 289.05 356.03 293.60 348.63 300.20 343.15 C 310.30 334.70 323.42 327.47 337.01 330.36 C 344.45 331.92 352.51 334.31 357.09 340.87 C 361.35 345.55 360.45 352.24 360.30 358.05 C 365.42 352.60 370.61 347.20 374.95 341.08 C 387.57 323.00 396.56 302.45 401.51 280.97 C 405.75 264.34 408.01 247.15 407.17 230.00 C 405.89 221.39 406.97 212.65 406.06 204.01 C 404.17 178.65 401.74 152.98 393.60 128.72 C 390.34 119.00 386.13 109.40 379.50 101.48 C 376.64 98.04 373.12 95.03 368.91 93.41 C 359.63 97.22 355.16 107.00 350.22 115.06 M 191.48 347.51 C 188.90 349.90 187.24 353.43 187.51 357.00 C 188.03 370.73 199.20 382.03 197.68 396.08 C 196.88 409.20 190.99 422.06 193.95 435.35 C 194.75 439.40 197.64 443.09 201.71 444.22 C 212.11 446.45 222.45 442.43 231.39 437.42 C 238.41 433.41 244.82 428.17 249.41 421.45 C 251.22 419.20 250.82 416.08 250.45 413.43 C 249.31 409.95 245.50 408.00 242.06 407.68 C 235.94 407.90 229.86 408.91 223.91 410.36 C 231.12 406.79 238.92 404.64 246.20 401.29 C 242.74 396.56 237.75 393.45 232.90 390.34 C 237.58 391.19 242.13 392.80 246.84 393.40 C 249.21 389.34 249.78 384.59 249.76 379.97 C 249.69 377.74 250.13 375.22 248.69 373.31 C 242.70 364.52 235.51 356.48 227.03 350.01 C 223.76 347.50 220.20 345.29 216.29 343.93 C 208.14 340.90 198.27 341.80 191.48 347.51 M 312.60 349.55 C 304.13 355.98 296.90 363.97 290.83 372.68 C 288.78 375.30 289.37 378.77 289.42 381.86 C 289.46 386.02 290.74 390.05 292.65 393.72 C 297.26 392.16 302.05 391.29 306.80 390.28 C 302.76 392.61 298.64 395.00 295.34 398.34 C 294.75 399.38 292.74 400.46 293.72 401.79 C 296.70 403.54 300.21 404.00 303.36 405.35 C 307.29 407.01 311.20 408.71 315.10 410.46 C 309.49 408.94 303.73 408.05 297.94 407.67 C 293.64 407.61 288.68 410.45 288.44 415.14 C 287.49 420.46 292.00 424.24 295.00 427.97 C 303.19 435.89 313.65 441.45 324.67 444.24 C 330.52 444.94 337.70 445.95 342.22 441.22 C 346.46 436.99 345.55 430.42 345.69 424.97 C 345.76 412.48 339.76 400.51 341.82 387.97 C 344.17 378.35 349.45 369.70 351.43 359.97 C 352.20 355.48 351.09 350.50 347.52 347.46 C 343.50 344.13 338.26 342.13 333.01 342.31 C 325.54 341.82 318.49 345.26 312.60 349.55 M 257.56 379.60 C 254.98 381.10 252.65 383.44 251.75 386.34 C 251.15 390.52 251.55 394.78 251.44 399.00 C 251.55 403.07 250.72 407.85 253.91 411.04 C 256.64 414.86 261.66 415.23 265.95 415.28 C 271.27 415.17 276.77 415.78 281.90 414.04 C 284.69 413.04 286.65 410.48 287.47 407.70 C 288.79 402.90 288.17 397.88 288.31 392.98 C 288.27 388.92 287.98 384.23 284.62 381.43 C 280.44 377.41 274.26 378.52 269.00 378.37 C 265.19 378.53 261.09 377.78 257.56 379.60 Z" />
<path fill="#fc92b0" opacity="1.00" d=" M 209.31 227.06 C 219.67 224.70 230.69 232.74 232.15 243.18 C 234.59 255.49 222.11 267.51 209.94 265.03 C 202.51 263.76 195.95 257.94 194.30 250.51 C 191.51 240.34 198.98 228.93 209.31 227.06 Z" />
<path fill="#fc92b0" opacity="1.00" d=" M 322.49 227.72 C 334.20 223.08 348.48 233.41 347.67 246.00 C 348.62 258.21 334.99 268.28 323.54 264.57 C 315.41 262.48 308.94 254.52 309.42 246.00 C 309.17 237.91 314.77 230.14 322.49 227.72 Z" />
<path fill="#fc92b0" opacity="1.00" d=" M 264.79 281.19 C 270.58 280.05 276.79 280.53 282.22 282.91 C 284.54 283.92 286.66 286.27 286.35 288.95 C 284.90 294.05 280.78 298.34 275.68 299.85 C 267.52 302.55 257.14 297.70 255.52 288.92 C 255.01 283.88 260.85 282.04 264.79 281.19 Z" />
</g>
</svg>
