<?xml version="1.0" encoding="UTF-8" ?>
<!DOCTYPE svg PUBLIC "-//W3C//DTD SVG 1.1//EN" "http://www.w3.org/Graphics/SVG/1.1/DTD/svg11.dtd">
<svg width="1131pt" height="418pt" viewBox="0 0 1131 418" version="1.1" xmlns="http://www.w3.org/2000/svg">
<g id="#000000ff">
</g>
<g id="#fb8eadff">
<path fill="#fb8ead" opacity="1.00" d=" M 549.08 13.03 C 553.91 11.09 560.02 12.74 563.28 16.79 C 566.10 21.23 564.21 26.77 561.86 30.97 C 554.50 44.07 543.06 54.14 532.11 64.17 C 531.47 51.47 532.92 38.51 537.75 26.68 C 540.11 21.22 543.57 15.74 549.08 13.03 Z" />
<path fill="#fb8ead" opacity="1.00" d=" M 593.19 32.24 C 605.54 24.12 619.88 17.90 634.92 18.32 C 645.06 18.53 655.83 20.48 663.87 27.09 C 670.16 32.22 672.26 41.99 668.06 49.04 C 664.23 54.89 657.03 57.17 650.51 58.41 C 638.43 60.31 626.16 60.40 613.96 60.36 C 596.39 60.34 578.66 65.13 564.00 74.94 C 571.18 75.56 578.08 80.01 581.21 86.57 C 583.24 91.41 583.91 96.88 582.34 101.95 C 589.91 96.06 598.95 92.16 608.32 90.19 C 610.50 85.13 613.60 80.23 618.39 77.28 C 625.34 72.78 635.28 73.53 641.40 79.16 C 641.84 77.09 642.55 74.43 645.06 74.14 C 648.60 73.14 651.82 77.69 649.66 80.66 C 648.89 82.36 646.94 82.53 645.36 82.88 C 648.24 86.95 649.91 91.97 649.39 96.99 C 645.63 126.86 641.90 156.74 638.20 186.63 C 654.34 186.76 670.46 186.36 686.60 186.44 C 690.73 157.27 694.29 128.02 698.22 98.82 C 698.73 92.85 699.93 86.62 703.81 81.85 C 707.51 76.79 713.85 74.15 720.04 74.40 C 731.69 74.19 742.30 85.26 740.79 97.01 C 737.19 126.83 733.41 156.63 729.58 186.42 C 738.89 186.57 748.21 186.18 757.51 186.62 C 764.79 187.00 771.56 190.66 776.09 196.32 C 776.89 178.81 779.52 161.43 781.94 144.08 C 784.43 127.33 787.28 110.63 790.30 93.96 C 791.78 86.60 796.39 79.11 803.85 76.68 C 814.44 72.80 827.73 79.20 830.83 90.17 C 832.69 95.67 831.18 101.42 830.28 106.93 C 827.59 123.74 825.10 140.58 822.93 157.47 C 820.27 180.50 817.22 203.74 819.35 226.95 C 820.64 240.18 823.14 253.64 829.67 265.38 C 832.70 270.74 837.28 275.86 843.54 277.23 C 851.33 279.56 858.38 273.70 863.69 268.71 C 880.24 251.58 890.79 229.26 896.01 206.18 C 900.97 168.90 906.04 131.63 911.04 94.35 C 911.65 89.22 914.30 84.49 917.91 80.85 C 924.59 74.31 936.07 73.76 943.49 79.41 C 950.25 83.76 953.80 92.22 952.45 100.11 C 944.44 162.12 936.49 224.13 928.56 286.12 C 926.92 294.88 927.73 304.68 922.35 312.30 C 917.94 319.02 909.12 321.91 901.41 320.41 C 894.46 319.00 888.62 313.83 885.93 307.34 C 877.63 313.29 868.11 317.47 858.11 319.54 C 856.19 323.85 854.51 328.25 852.70 332.60 C 852.16 332.42 851.08 332.05 850.54 331.86 C 852.05 327.86 853.67 323.91 855.30 319.96 C 853.06 320.26 850.83 320.54 848.59 320.80 C 839.40 345.10 830.24 369.41 821.02 393.70 C 643.54 393.68 466.06 393.73 288.58 393.67 C 298.11 368.16 307.85 342.72 317.41 317.22 C 305.05 321.38 291.28 322.20 278.90 317.64 C 260.54 311.58 247.56 295.53 239.47 278.61 C 228.15 254.89 226.01 227.93 228.03 202.04 C 230.53 178.02 237.06 154.34 248.06 132.80 C 256.30 116.69 267.31 101.86 281.17 90.15 C 292.55 80.39 306.88 73.70 321.98 72.99 C 332.55 72.61 343.39 74.94 352.53 80.38 C 365.44 88.02 375.03 100.26 381.68 113.52 C 387.57 125.53 391.10 138.60 392.89 151.83 C 401.65 147.65 411.04 142.91 421.06 144.40 C 428.26 145.97 434.92 151.66 436.49 159.05 C 439.49 138.73 441.84 118.32 444.55 97.96 C 444.90 91.58 447.08 85.19 451.49 80.46 C 454.94 76.76 459.98 74.74 465.02 74.74 C 495.44 74.62 525.87 74.87 556.30 74.62 C 565.24 58.02 577.53 42.93 593.19 32.24 M 285.01 99.18 C 266.66 115.80 254.16 138.01 246.36 161.32 C 238.46 185.02 234.82 210.36 237.67 235.28 C 239.42 256.33 246.54 277.45 260.29 293.74 C 269.08 304.20 282.19 310.94 295.92 311.35 C 310.91 311.77 325.28 305.00 336.47 295.37 C 353.78 280.41 365.99 260.23 373.61 238.81 C 379.31 223.26 383.08 207.01 384.48 190.49 C 395.33 188.32 406.36 185.70 415.94 179.95 C 420.04 177.51 423.93 174.35 426.17 170.04 C 428.49 166.03 428.32 160.42 425.03 156.98 C 422.06 153.73 417.28 152.60 413.11 153.89 C 403.21 156.49 394.42 161.96 384.93 165.64 C 383.19 143.10 377.91 119.69 363.10 101.92 C 353.67 89.81 338.63 81.78 323.09 82.41 C 308.76 82.69 295.50 89.81 285.01 99.18 M 459.31 86.25 C 456.15 88.56 454.86 92.51 454.22 96.20 C 445.67 162.47 436.90 228.72 428.46 295.01 C 427.24 301.94 431.30 310.45 438.91 311.20 C 446.60 311.62 454.32 311.24 462.03 311.40 C 466.27 311.98 468.86 307.38 473.04 307.51 C 478.75 306.67 482.51 312.80 488.31 311.48 C 489.19 309.65 490.12 307.84 491.04 306.02 C 491.78 307.24 492.58 308.43 493.44 309.58 C 499.23 310.22 504.87 312.09 510.77 311.37 C 510.51 309.43 510.27 307.48 510.04 305.54 C 519.49 308.26 529.00 312.66 539.06 311.16 C 542.89 310.35 547.19 308.83 549.13 305.15 C 551.61 300.84 551.38 294.80 547.70 291.22 C 544.71 288.06 540.21 287.01 536.00 287.12 C 508.48 287.12 480.96 287.14 453.45 287.11 C 456.78 262.22 459.89 237.30 463.22 212.40 C 483.81 212.47 504.40 212.37 524.99 212.46 C 530.03 212.57 535.54 210.91 538.55 206.61 C 541.57 202.91 541.05 197.32 538.41 193.57 C 535.67 189.62 530.58 188.07 525.97 188.19 C 506.02 188.21 486.08 188.22 466.13 188.19 C 469.49 161.50 473.15 134.85 476.66 108.18 C 503.76 108.22 530.86 108.16 557.96 108.22 C 562.30 108.23 566.97 107.20 570.22 104.14 C 575.17 99.61 574.99 90.56 569.36 86.64 C 563.99 82.97 557.15 83.92 551.01 83.95 C 524.01 83.76 497.01 83.93 470.01 83.84 C 466.36 83.91 462.36 83.94 459.31 86.25 M 624.69 84.65 C 618.89 87.25 616.45 93.93 616.46 99.92 C 608.10 162.69 599.37 225.43 591.21 288.24 C 590.13 294.42 589.00 301.50 593.11 306.89 C 596.71 311.93 604.08 312.39 609.00 309.08 C 612.11 306.71 613.20 302.71 614.00 299.07 C 618.03 272.95 620.84 246.66 624.48 220.48 C 646.85 220.55 669.21 220.49 691.58 220.51 C 688.64 243.00 685.91 265.52 682.96 288.02 C 682.30 293.51 680.83 299.41 683.33 304.67 C 685.95 310.41 693.50 313.17 699.13 310.16 C 703.97 307.75 705.03 301.86 705.83 297.03 C 709.35 271.56 712.71 246.06 715.96 220.55 C 728.99 220.44 742.01 220.54 755.03 220.51 C 759.98 220.43 765.21 218.27 767.87 213.92 C 770.39 210.18 769.98 205.03 767.59 201.35 C 764.89 197.77 760.43 195.93 756.01 196.00 C 743.70 195.68 731.38 195.97 719.06 195.90 C 722.70 164.93 726.82 134.01 730.69 103.06 C 731.21 98.31 732.78 92.73 729.28 88.70 C 725.68 83.28 717.30 82.08 712.44 86.44 C 708.73 89.67 708.24 94.85 707.64 99.41 C 703.56 131.57 699.06 163.67 694.91 195.82 C 672.47 195.84 650.03 196.28 627.59 196.28 C 631.08 168.18 634.62 140.10 638.08 112.00 C 638.78 106.34 639.79 100.68 639.89 94.96 C 640.00 87.66 631.52 81.41 624.69 84.65 M 806.03 86.01 C 800.44 89.15 799.16 96.03 798.46 101.86 C 792.36 136.35 786.87 171.03 784.64 206.03 C 783.81 225.89 785.08 246.22 791.70 265.11 C 797.25 279.50 805.15 293.81 818.07 302.82 C 828.94 310.52 843.15 313.09 856.12 310.22 C 871.78 307.39 886.05 297.84 894.78 284.56 C 894.69 290.31 892.84 296.08 894.17 301.80 C 895.39 307.89 901.92 312.65 908.13 311.11 C 913.39 310.20 916.82 305.05 917.30 299.99 C 925.90 234.36 934.21 168.71 942.59 103.05 C 943.17 99.33 944.03 95.31 942.14 91.80 C 939.43 84.96 929.20 82.64 924.10 88.08 C 919.97 92.24 919.97 98.47 919.29 103.91 C 914.55 138.35 910.07 172.83 905.30 207.27 C 901.58 224.60 894.98 241.42 885.32 256.33 C 878.17 267.13 870.03 278.07 858.31 284.22 C 849.63 288.99 838.28 287.49 830.71 281.30 C 824.62 276.31 820.63 269.31 817.77 262.09 C 813.34 251.20 811.04 239.53 810.19 227.83 C 808.80 215.98 808.99 203.99 810.13 192.13 C 810.64 179.95 812.20 167.84 813.78 155.76 C 816.22 136.11 819.18 116.53 822.36 96.98 C 822.91 88.77 813.42 82.47 806.03 86.01 M 581.38 104.55 C 577.80 112.46 569.33 116.92 560.97 117.60 C 535.58 117.61 510.19 117.59 484.80 117.61 C 482.02 137.98 479.51 158.40 476.67 178.77 C 492.79 178.81 508.91 178.77 525.02 178.79 C 529.32 178.96 533.83 179.12 537.73 181.16 C 544.23 184.22 549.48 190.56 549.77 197.94 C 551.14 207.16 545.15 216.48 536.46 219.57 C 529.71 222.65 522.19 221.65 515.01 221.78 C 500.47 221.78 485.94 221.79 471.40 221.78 C 468.92 240.47 466.50 259.16 464.25 277.88 C 485.83 277.88 507.42 277.88 529.00 277.88 C 533.02 277.89 537.06 277.74 541.07 278.17 C 546.57 278.58 551.66 281.55 555.45 285.45 C 559.59 289.95 560.38 296.33 560.10 302.19 C 567.11 302.19 574.12 302.19 581.12 302.20 C 580.24 295.47 581.80 288.75 582.58 282.09 C 587.11 248.21 591.58 214.32 596.15 180.45 C 599.31 155.48 603.16 130.59 605.98 105.58 C 598.01 103.19 589.51 102.72 581.38 104.55 M 418.42 189.37 C 410.47 193.76 401.66 196.17 392.95 198.57 C 391.79 209.66 389.25 220.56 386.07 231.24 C 378.13 258.05 364.20 283.81 342.79 302.23 C 368.26 302.14 393.74 302.22 419.22 302.19 C 419.08 300.12 418.76 298.05 418.99 295.99 C 424.08 255.40 429.59 214.86 434.59 174.26 C 431.16 181.03 424.92 185.77 418.42 189.37 M 754.96 229.82 C 744.75 229.79 734.54 229.85 724.33 229.78 C 721.58 249.46 719.16 269.18 716.44 288.86 C 741.89 288.86 767.34 288.91 792.79 288.84 C 780.04 268.44 775.05 244.02 775.13 220.19 C 770.57 226.54 762.66 229.90 754.96 229.82 M 624.29 294.26 C 640.43 294.25 656.56 294.28 672.70 294.25 C 672.78 292.78 672.87 291.33 672.97 289.88 C 660.81 289.73 648.64 290.15 636.49 289.66 C 636.88 289.49 637.66 289.15 638.06 288.98 C 649.83 288.69 661.63 288.99 673.41 288.84 C 675.74 269.15 678.59 249.51 680.86 229.81 C 664.80 229.82 648.74 229.81 632.68 229.81 C 629.94 251.30 627.14 272.79 624.29 294.26 M 716.40 289.87 C 716.13 291.33 715.84 292.79 715.58 294.25 C 742.59 294.27 769.59 294.25 796.59 294.26 C 795.49 292.79 794.41 291.32 793.32 289.85 C 767.68 289.90 742.04 289.86 716.40 289.87 M 623.94 296.20 C 623.64 298.19 623.34 300.19 623.07 302.19 C 639.59 302.20 656.12 302.17 672.64 302.20 C 672.51 300.20 672.41 298.19 672.34 296.19 C 656.20 296.20 640.07 296.19 623.94 296.20 M 715.39 296.20 C 715.07 298.20 714.76 300.19 714.47 302.20 C 743.96 302.19 773.45 302.17 802.95 302.21 C 801.23 300.25 799.58 298.25 797.95 296.23 C 770.43 296.15 742.91 296.21 715.39 296.20 M 472.32 319.55 C 469.47 326.71 471.36 334.58 472.24 341.95 C 473.40 350.69 473.18 359.66 475.76 368.17 C 476.51 370.05 478.14 371.38 479.37 372.95 C 481.48 372.64 484.20 372.35 485.06 370.03 C 487.59 364.30 488.94 358.13 491.42 352.38 C 494.80 344.70 497.09 336.60 499.75 328.66 C 500.28 326.45 501.30 323.94 500.22 321.76 C 498.82 320.68 497.22 319.90 495.71 319.02 C 494.36 320.57 492.99 322.16 492.37 324.16 C 490.53 329.46 488.37 334.66 486.95 340.10 C 485.96 344.18 483.68 347.76 482.06 351.60 C 481.65 344.02 480.29 336.54 479.95 328.96 C 479.78 324.54 477.58 320.46 474.74 317.18 C 473.16 316.44 472.98 318.63 472.32 319.55 M 650.32 318.35 C 645.84 322.23 643.50 327.96 641.32 333.34 C 637.82 342.36 638.72 352.28 640.53 361.57 C 643.13 368.38 650.33 374.09 657.94 372.28 C 666.16 369.91 670.69 361.67 672.57 353.87 C 674.15 344.13 670.70 334.38 666.13 325.91 C 663.06 320.67 656.59 315.78 650.32 318.35 M 521.94 318.86 C 520.58 321.73 519.13 324.73 519.55 328.01 C 520.01 334.33 520.38 340.66 520.24 347.00 C 520.45 353.67 517.66 360.20 519.21 366.85 C 520.36 368.04 521.50 369.24 522.64 370.45 C 524.29 370.63 525.96 370.81 527.63 370.99 C 530.27 363.33 531.02 354.92 529.09 347.00 C 528.59 339.29 528.14 331.56 527.14 323.89 C 527.10 320.94 524.09 319.99 521.94 318.86 M 553.08 326.00 C 551.62 331.18 551.98 336.66 551.60 341.98 C 551.46 347.36 550.61 352.88 552.30 358.11 C 551.23 361.10 551.36 364.28 551.50 367.40 C 552.65 368.53 553.80 369.67 554.94 370.83 C 558.74 370.73 562.88 371.31 566.33 369.31 C 570.43 366.88 573.55 363.13 576.25 359.27 C 581.65 351.12 584.99 340.73 581.81 331.09 C 580.05 325.17 574.81 320.76 568.97 319.14 C 563.07 318.07 555.71 320.14 553.08 326.00 M 606.12 320.11 C 604.53 322.07 603.48 324.39 603.20 326.91 C 601.82 336.32 600.39 345.88 601.35 355.41 C 601.75 360.29 604.10 364.64 606.15 368.99 C 606.70 370.45 608.65 370.39 609.95 370.38 C 614.10 369.88 619.05 369.76 621.75 366.03 C 618.74 363.93 615.18 363.04 611.53 363.47 C 609.53 358.48 608.95 353.08 608.85 347.74 C 612.56 346.96 617.11 347.06 619.31 343.39 C 616.50 340.91 612.76 340.74 609.20 340.85 C 609.67 335.70 610.05 330.53 610.83 325.41 C 614.17 325.11 618.16 324.78 619.32 321.00 C 615.38 317.87 610.53 321.33 606.12 320.11 Z" />
<path fill="#fb8ead" opacity="1.00" d=" M 1002.39 75.10 C 1020.63 72.40 1039.45 71.08 1057.61 75.08 C 1071.71 77.93 1085.80 84.63 1094.40 96.53 C 1102.62 107.78 1105.15 122.34 1103.82 135.98 C 1102.91 153.69 1096.99 171.44 1085.39 185.05 C 1096.84 190.81 1106.78 200.07 1112.11 211.85 C 1118.51 225.55 1119.27 241.42 1115.86 256.02 C 1112.64 271.80 1104.58 286.74 1092.42 297.39 C 1081.83 306.72 1068.73 312.81 1055.15 316.34 C 1032.50 322.34 1008.82 322.27 985.58 321.09 C 978.89 320.78 971.76 319.05 967.20 313.80 C 962.11 308.26 960.58 300.17 961.87 292.91 C 970.40 226.41 979.09 159.93 987.68 93.44 C 988.59 85.21 994.12 77.23 1002.39 75.10 M 1005.98 84.09 C 1002.97 84.41 1000.54 86.49 999.00 88.97 C 996.77 92.19 997.00 96.27 996.38 99.98 C 988.38 161.64 980.35 223.30 972.39 284.97 C 972.10 290.76 969.68 296.65 971.52 302.40 C 972.80 307.17 977.16 311.07 982.18 311.32 C 1007.38 312.78 1033.35 313.71 1057.69 305.81 C 1071.46 301.58 1084.46 293.91 1093.56 282.60 C 1102.61 271.37 1107.23 257.11 1108.37 242.86 C 1109.37 228.58 1104.94 213.59 1094.77 203.25 C 1087.62 195.91 1078.13 191.43 1068.46 188.45 C 1071.26 185.92 1074.10 183.43 1076.65 180.63 C 1086.11 170.56 1091.50 157.20 1093.49 143.65 C 1095.58 131.06 1095.70 117.23 1089.05 105.90 C 1083.19 94.98 1071.75 88.39 1060.07 85.35 C 1042.40 80.88 1023.89 81.62 1005.98 84.09 Z" />
<path fill="#fb8ead" opacity="1.00" d=" M 47.34 82.46 C 54.72 73.16 69.82 72.89 78.49 80.49 C 80.87 82.65 82.45 85.58 83.18 88.69 C 92.46 136.32 102.17 183.87 111.69 231.46 C 134.03 183.63 156.70 135.94 179.15 88.16 C 182.58 80.56 190.53 74.93 198.99 75.17 C 210.87 74.66 221.91 85.97 220.29 97.95 C 212.77 160.03 204.85 222.08 196.53 284.08 C 195.25 291.64 194.78 299.38 192.57 306.76 C 190.61 313.05 185.44 318.35 178.97 319.93 C 172.02 321.89 164.07 320.21 158.83 315.16 C 153.15 310.20 151.06 302.22 151.81 294.92 C 153.35 279.88 155.26 264.88 156.89 249.84 C 157.55 244.22 158.51 238.62 158.59 232.94 C 149.17 253.85 139.04 274.45 129.36 295.24 C 125.83 302.16 123.39 309.97 117.54 315.37 C 111.43 321.08 101.82 322.26 94.35 318.65 C 87.59 315.28 83.61 308.06 82.05 300.92 C 77.39 278.11 72.72 255.30 68.05 232.50 C 64.97 253.72 61.88 274.95 58.46 296.12 C 57.49 302.58 56.49 309.68 51.69 314.54 C 46.92 319.76 39.25 321.63 32.44 320.30 C 24.90 318.83 18.51 312.87 16.46 305.47 C 13.70 297.07 16.95 288.41 17.49 279.94 C 25.23 221.61 32.74 163.25 40.59 104.91 C 41.75 97.21 41.78 88.57 47.34 82.46 M 54.57 88.53 C 50.62 93.04 50.94 99.41 50.06 104.98 C 42.47 160.64 35.29 216.36 27.88 272.04 C 27.01 281.35 24.68 290.59 25.02 299.97 C 25.34 307.16 32.87 313.21 39.95 310.94 C 45.18 309.80 47.69 304.44 48.37 299.60 C 52.40 275.16 55.81 250.63 59.54 226.14 C 61.74 209.61 63.71 193.06 66.17 176.57 C 74.37 217.07 82.79 257.54 91.05 298.04 C 91.90 302.37 93.89 306.72 97.43 309.51 C 101.75 312.72 108.18 311.49 111.76 307.73 C 114.46 304.86 116.12 301.22 117.84 297.73 C 129.72 272.29 141.72 246.90 153.72 221.52 C 160.67 206.63 168.06 191.96 174.70 176.93 C 174.51 182.66 173.56 188.32 172.89 194.01 C 169.30 225.93 165.37 257.81 161.77 289.73 C 161.10 295.26 160.28 301.50 163.62 306.38 C 167.28 311.85 175.73 313.12 180.62 308.60 C 184.95 304.25 184.77 297.68 185.93 292.05 C 194.80 227.09 202.97 162.02 211.04 96.97 C 211.55 91.42 207.20 86.30 202.01 84.87 C 196.41 83.54 190.23 86.73 187.84 91.92 C 161.78 147.15 135.64 202.36 109.60 257.60 C 109.05 258.52 108.42 259.41 107.82 260.31 C 96.94 204.52 85.31 148.88 74.53 93.07 C 73.65 83.71 59.83 81.78 54.57 88.53 Z" />
<path fill="#fb8ead" opacity="1.00" d=" M 1019.67 104.11 C 1026.39 103.12 1033.24 103.55 1039.99 104.07 C 1048.59 105.25 1057.92 106.37 1064.81 112.19 C 1070.03 116.45 1072.12 123.47 1071.89 130.01 C 1071.76 143.81 1067.89 158.73 1056.97 167.98 C 1044.01 179.20 1025.93 181.13 1009.47 181.51 C 1013.03 155.73 1016.49 129.94 1019.67 104.11 M 1027.85 113.20 C 1025.62 132.67 1022.75 152.08 1020.33 171.53 C 1032.63 170.48 1046.11 167.23 1054.29 157.24 C 1060.95 148.81 1063.01 137.55 1062.41 127.04 C 1062.11 121.76 1057.81 117.58 1052.97 116.04 C 1044.92 113.30 1036.28 112.96 1027.85 113.20 Z" />
<path fill="#fb8ead" opacity="1.00" d=" M 320.81 111.73 C 325.19 108.20 331.44 108.66 336.33 110.82 C 342.74 113.72 347.08 119.70 350.15 125.83 C 356.87 139.55 359.20 154.89 360.57 169.97 C 348.03 169.32 336.18 163.37 326.83 155.21 C 318.77 148.27 313.58 137.73 314.34 126.98 C 314.59 121.40 315.99 115.16 320.81 111.73 M 324.53 122.08 C 322.76 128.61 323.72 135.89 327.40 141.61 C 332.59 149.59 341.08 154.79 349.77 158.26 C 348.11 148.41 346.07 138.46 341.65 129.43 C 339.21 124.63 335.52 119.73 329.98 118.49 C 327.54 117.88 325.08 119.74 324.53 122.08 Z" />
<path fill="#fb8ead" opacity="1.00" d=" M 265.37 247.91 C 256.57 209.14 263.64 166.46 286.37 133.59 C 291.19 148.47 299.15 162.66 310.95 173.12 C 324.05 185.44 341.76 192.47 359.74 192.60 C 357.19 214.23 349.78 235.16 338.95 254.00 C 331.84 265.40 323.84 277.16 311.71 283.69 C 302.33 288.99 289.58 287.87 281.76 280.28 C 272.57 271.84 268.44 259.65 265.37 247.91 M 270.97 213.01 C 270.95 229.38 273.10 246.04 279.65 261.17 C 282.79 267.87 287.43 275.01 294.99 277.08 C 301.10 279.10 307.39 275.84 312.17 272.19 C 322.13 264.48 328.65 253.36 334.56 242.44 C 341.29 229.50 346.32 215.59 348.89 201.21 C 321.34 197.84 297.43 178.73 284.91 154.41 C 275.94 172.59 271.51 192.80 270.97 213.01 Z" />
<path fill="#fb8ead" opacity="1.00" d=" M 995.55 289.66 C 999.45 261.70 1002.83 233.67 1006.75 205.72 C 1021.36 206.17 1036.01 206.84 1050.40 209.49 C 1061.30 211.83 1072.82 215.90 1079.79 225.11 C 1086.09 233.61 1085.71 245.07 1082.79 254.78 C 1079.93 264.98 1072.35 273.39 1063.16 278.40 C 1049.25 286.62 1032.91 289.02 1017.05 290.02 C 1009.89 290.37 1002.68 290.48 995.55 289.66 M 1006.29 280.73 C 1022.38 280.92 1038.82 279.24 1053.74 272.86 C 1062.59 268.97 1070.76 262.23 1073.72 252.72 C 1075.65 245.58 1076.87 237.09 1072.30 230.68 C 1067.83 224.63 1060.43 221.93 1053.51 219.79 C 1040.87 216.73 1027.81 216.11 1014.86 215.52 C 1011.98 237.25 1009.08 258.99 1006.29 280.73 Z" />
<path fill="#fb8ead" opacity="1.00" d=" M 648.06 338.08 C 649.44 333.01 651.50 328.00 654.89 323.92 C 656.01 324.84 657.41 325.57 658.08 326.94 C 663.25 335.91 666.23 346.60 663.64 356.88 C 661.10 360.66 657.69 364.40 653.00 365.24 C 649.92 365.72 648.97 362.20 648.57 359.88 C 647.64 352.68 646.18 345.25 648.06 338.08 Z" />
<path fill="#fb8ead" opacity="1.00" d=" M 559.87 328.92 C 562.85 327.32 566.22 325.63 569.70 326.42 C 572.49 327.39 573.18 330.69 573.87 333.21 C 575.65 344.23 570.42 355.85 560.99 361.84 C 560.80 350.86 560.07 339.90 559.87 328.92 Z" />
<path fill="#fb8ead" opacity="1.00" d=" M 847.04 337.06 C 846.07 333.52 852.24 332.96 852.79 336.14 C 852.59 337.08 852.32 338.00 851.98 338.91 C 850.32 338.69 847.09 339.60 847.04 337.06 M 848.03 335.17 C 847.39 337.73 849.99 339.25 851.76 337.10 C 851.74 334.75 849.69 335.13 848.03 335.17 Z" />
<path fill="#fb8ead" opacity="1.00" d=" M 291.97 356.98 C 293.56 356.51 295.68 355.45 296.98 357.10 C 299.17 359.04 296.16 362.41 293.79 361.32 C 291.66 360.94 292.13 358.53 291.97 356.98 M 294.19 357.16 C 292.16 357.53 292.87 361.23 294.99 360.35 C 297.54 360.73 296.58 356.10 294.19 357.16 Z" />
<path fill="#fb8ead" opacity="1.00" d=" M 291.65 363.13 C 292.22 363.15 293.37 363.19 293.95 363.21 C 289.34 375.27 284.23 387.12 279.58 399.16 C 367.66 399.22 455.74 399.11 543.82 399.22 C 543.77 399.71 543.66 400.70 543.60 401.19 C 454.52 401.15 365.44 401.19 276.36 401.17 C 281.39 388.47 286.62 375.84 291.65 363.13 Z" />
<path fill="#fb8ead" opacity="1.00" d=" M 340.27 406.78 C 339.85 402.81 346.14 401.67 347.76 405.03 C 348.51 406.96 347.25 408.62 345.97 409.92 C 343.64 409.98 340.71 409.60 340.27 406.78 M 341.92 404.82 C 340.99 406.18 341.35 408.52 343.20 408.75 C 344.92 409.38 347.49 407.77 346.71 405.81 C 346.44 403.56 343.31 403.84 341.92 404.82 Z" />
</g>
<g id="#ffffffff">
<path fill="#ffffff" opacity="1.00" d=" M 1005.98 84.09 C 1023.89 81.62 1042.40 80.88 1060.07 85.35 C 1071.75 88.39 1083.19 94.98 1089.05 105.90 C 1095.70 117.23 1095.58 131.06 1093.49 143.65 C 1091.50 157.20 1086.11 170.56 1076.65 180.63 C 1074.10 183.43 1071.26 185.92 1068.46 188.45 C 1078.13 191.43 1087.62 195.91 1094.77 203.25 C 1104.94 213.59 1109.37 228.58 1108.37 242.86 C 1107.23 257.11 1102.61 271.37 1093.56 282.60 C 1084.46 293.91 1071.46 301.58 1057.69 305.81 C 1033.35 313.71 1007.38 312.78 982.18 311.32 C 977.16 311.07 972.80 307.17 971.52 302.40 C 969.68 296.65 972.10 290.76 972.39 284.97 C 980.35 223.30 988.38 161.64 996.38 99.98 C 997.00 96.27 996.77 92.19 999.00 88.97 C 1000.54 86.49 1002.97 84.41 1005.98 84.09 M 1019.67 104.11 C 1016.49 129.94 1013.03 155.73 1009.47 181.51 C 1025.93 181.13 1044.01 179.20 1056.97 167.98 C 1067.89 158.73 1071.76 143.81 1071.89 130.01 C 1072.12 123.47 1070.03 116.45 1064.81 112.19 C 1057.92 106.37 1048.59 105.25 1039.99 104.07 C 1033.24 103.55 1026.39 103.12 1019.67 104.11 M 995.55 289.66 C 1002.68 290.48 1009.89 290.37 1017.05 290.02 C 1032.91 289.02 1049.25 286.62 1063.16 278.40 C 1072.35 273.39 1079.93 264.98 1082.79 254.78 C 1085.71 245.07 1086.09 233.61 1079.79 225.11 C 1072.82 215.90 1061.30 211.83 1050.40 209.49 C 1036.01 206.84 1021.36 206.17 1006.75 205.72 C 1002.83 233.67 999.45 261.70 995.55 289.66 Z" />
<path fill="#ffffff" opacity="1.00" d=" M 285.01 99.18 C 295.50 89.81 308.76 82.69 323.09 82.41 C 338.63 81.78 353.67 89.81 363.10 101.92 C 377.91 119.69 383.19 143.10 384.93 165.64 C 394.42 161.96 403.21 156.49 413.11 153.89 C 417.28 152.60 422.06 153.73 425.03 156.98 C 428.32 160.42 428.49 166.03 426.17 170.04 C 423.93 174.35 420.04 177.51 415.94 179.95 C 406.36 185.70 395.33 188.32 384.48 190.49 C 383.08 207.01 379.31 223.26 373.61 238.81 C 365.99 260.23 353.78 280.41 336.47 295.37 C 325.28 305.00 310.91 311.77 295.92 311.35 C 282.19 310.94 269.08 304.20 260.29 293.74 C 246.54 277.45 239.42 256.33 237.67 235.28 C 234.82 210.36 238.46 185.02 246.36 161.32 C 254.16 138.01 266.66 115.80 285.01 99.18 M 320.81 111.73 C 315.99 115.16 314.59 121.40 314.34 126.98 C 313.58 137.73 318.77 148.27 326.83 155.21 C 336.18 163.37 348.03 169.32 360.57 169.97 C 359.20 154.89 356.87 139.55 350.15 125.83 C 347.08 119.70 342.74 113.72 336.33 110.82 C 331.44 108.66 325.19 108.20 320.81 111.73 M 265.37 247.91 C 268.44 259.65 272.57 271.84 281.76 280.28 C 289.58 287.87 302.33 288.99 311.71 283.69 C 323.84 277.16 331.84 265.40 338.95 254.00 C 349.78 235.16 357.19 214.23 359.74 192.60 C 341.76 192.47 324.05 185.44 310.95 173.12 C 299.15 162.66 291.19 148.47 286.37 133.59 C 263.64 166.46 256.57 209.14 265.37 247.91 Z" />
<path fill="#ffffff" opacity="1.00" d=" M 459.31 86.25 C 462.36 83.94 466.36 83.91 470.01 83.84 C 497.01 83.93 524.01 83.76 551.01 83.95 C 557.15 83.92 563.99 82.97 569.36 86.64 C 574.99 90.56 575.17 99.61 570.22 104.14 C 566.97 107.20 562.30 108.23 557.96 108.22 C 530.86 108.16 503.76 108.22 476.66 108.18 C 473.15 134.85 469.49 161.50 466.13 188.19 C 486.08 188.22 506.02 188.21 525.97 188.19 C 530.58 188.07 535.67 189.62 538.41 193.57 C 541.05 197.32 541.57 202.91 538.55 206.61 C 535.54 210.91 530.03 212.57 524.99 212.46 C 504.40 212.37 483.81 212.47 463.22 212.40 C 459.89 237.30 456.78 262.22 453.45 287.11 C 480.96 287.14 508.48 287.12 536.00 287.12 C 540.21 287.01 544.71 288.06 547.70 291.22 C 551.38 294.80 551.61 300.84 549.13 305.15 C 547.19 308.83 542.89 310.35 539.06 311.16 C 529.00 312.66 519.49 308.26 510.04 305.54 C 510.27 307.48 510.51 309.43 510.77 311.37 C 504.87 312.09 499.23 310.22 493.44 309.58 C 492.58 308.43 491.78 307.24 491.04 306.02 C 490.12 307.84 489.19 309.65 488.31 311.48 C 482.51 312.80 478.75 306.67 473.04 307.51 C 468.86 307.38 466.27 311.98 462.03 311.40 C 454.32 311.24 446.60 311.62 438.91 311.20 C 431.30 310.45 427.24 301.94 428.46 295.01 C 436.90 228.72 445.67 162.47 454.22 96.20 C 454.86 92.51 456.15 88.56 459.31 86.25 Z" />
<path fill="#ffffff" opacity="1.00" d=" M 624.69 84.65 C 631.52 81.41 640.00 87.66 639.89 94.96 C 639.79 100.68 638.78 106.34 638.08 112.00 C 634.62 140.10 631.08 168.18 627.59 196.28 C 650.03 196.28 672.47 195.84 694.91 195.82 C 699.06 163.67 703.56 131.57 707.64 99.41 C 708.24 94.85 708.73 89.67 712.44 86.44 C 717.30 82.08 725.68 83.28 729.28 88.70 C 732.78 92.73 731.21 98.31 730.69 103.06 C 726.82 134.01 722.70 164.93 719.06 195.90 C 731.38 195.97 743.70 195.68 756.01 196.00 C 760.43 195.93 764.89 197.77 767.59 201.35 C 769.98 205.03 770.39 210.18 767.87 213.92 C 765.21 218.27 759.98 220.43 755.03 220.51 C 742.01 220.54 728.99 220.44 715.96 220.55 C 712.71 246.06 709.35 271.56 705.83 297.03 C 705.03 301.86 703.97 307.75 699.13 310.16 C 693.50 313.17 685.95 310.41 683.33 304.67 C 680.83 299.41 682.30 293.51 682.96 288.02 C 685.91 265.52 688.64 243.00 691.58 220.51 C 669.21 220.49 646.85 220.55 624.48 220.48 C 620.84 246.66 618.03 272.95 614.00 299.07 C 613.20 302.71 612.11 306.71 609.00 309.08 C 604.08 312.39 596.71 311.93 593.11 306.89 C 589.00 301.50 590.13 294.42 591.21 288.24 C 599.37 225.43 608.10 162.69 616.46 99.92 C 616.45 93.93 618.89 87.25 624.69 84.65 Z" />
<path fill="#ffffff" opacity="1.00" d=" M 54.57 88.53 C 59.83 81.78 73.65 83.71 74.53 93.07 C 85.31 148.88 96.94 204.52 107.82 260.31 C 108.42 259.41 109.05 258.52 109.60 257.60 C 135.64 202.36 161.78 147.15 187.84 91.92 C 190.23 86.73 196.41 83.54 202.01 84.87 C 207.20 86.30 211.55 91.42 211.04 96.97 C 202.97 162.02 194.80 227.09 185.93 292.05 C 184.77 297.68 184.95 304.25 180.62 308.60 C 175.73 313.12 167.28 311.85 163.62 306.38 C 160.28 301.50 161.10 295.26 161.77 289.73 C 165.37 257.81 169.30 225.93 172.89 194.01 C 173.56 188.32 174.51 182.66 174.70 176.93 C 168.06 191.96 160.67 206.63 153.72 221.52 C 141.72 246.90 129.72 272.29 117.84 297.73 C 116.12 301.22 114.46 304.86 111.76 307.73 C 108.18 311.49 101.75 312.72 97.43 309.51 C 93.89 306.72 91.90 302.37 91.05 298.04 C 82.79 257.54 74.37 217.07 66.17 176.57 C 63.71 193.06 61.74 209.61 59.54 226.14 C 55.81 250.63 52.40 275.16 48.37 299.60 C 47.69 304.44 45.18 309.80 39.95 310.94 C 32.87 313.21 25.34 307.16 25.02 299.97 C 24.68 290.59 27.01 281.35 27.88 272.04 C 35.29 216.36 42.47 160.64 50.06 104.98 C 50.94 99.41 50.62 93.04 54.57 88.53 Z" />
<path fill="#ffffff" opacity="1.00" d=" M 806.03 86.01 C 813.42 82.47 822.91 88.77 822.36 96.98 C 819.18 116.53 816.22 136.11 813.78 155.76 C 812.20 167.84 810.64 179.95 810.13 192.13 C 808.99 203.99 808.80 215.98 810.19 227.83 C 811.04 239.53 813.34 251.20 817.77 262.09 C 820.63 269.31 824.62 276.31 830.71 281.30 C 838.28 287.49 849.63 288.99 858.31 284.22 C 870.03 278.07 878.17 267.13 885.32 256.33 C 894.98 241.42 901.58 224.60 905.30 207.27 C 910.07 172.83 914.55 138.35 919.29 103.91 C 919.97 98.47 919.97 92.24 924.10 88.08 C 929.20 82.64 939.43 84.96 942.14 91.80 C 944.03 95.31 943.17 99.33 942.59 103.05 C 934.21 168.71 925.90 234.36 917.30 299.99 C 916.82 305.05 913.39 310.20 908.13 311.11 C 901.92 312.65 895.39 307.89 894.17 301.80 C 892.84 296.08 894.69 290.31 894.78 284.56 C 886.05 297.84 871.78 307.39 856.12 310.22 C 843.15 313.09 828.94 310.52 818.07 302.82 C 805.15 293.81 797.25 279.50 791.70 265.11 C 785.08 246.22 783.81 225.89 784.64 206.03 C 786.87 171.03 792.36 136.35 798.46 101.86 C 799.16 96.03 800.44 89.15 806.03 86.01 Z" />
<path fill="#ffffff" opacity="1.00" d=" M 472.32 319.55 C 472.98 318.63 473.16 316.44 474.74 317.18 C 477.58 320.46 479.78 324.54 479.95 328.96 C 480.29 336.54 481.65 344.02 482.06 351.60 C 483.68 347.76 485.96 344.18 486.95 340.10 C 488.37 334.66 490.53 329.46 492.37 324.16 C 492.99 322.16 494.36 320.57 495.71 319.02 C 497.22 319.90 498.82 320.68 500.22 321.76 C 501.30 323.94 500.28 326.45 499.75 328.66 C 497.09 336.60 494.80 344.70 491.42 352.38 C 488.94 358.13 487.59 364.30 485.06 370.03 C 484.20 372.35 481.48 372.64 479.37 372.95 C 478.14 371.38 476.51 370.05 475.76 368.17 C 473.18 359.66 473.40 350.69 472.24 341.95 C 471.36 334.58 469.47 326.71 472.32 319.55 Z" />
<path fill="#ffffff" opacity="1.00" d=" M 650.32 318.35 C 656.59 315.78 663.06 320.67 666.13 325.91 C 670.70 334.38 674.15 344.13 672.57 353.87 C 670.69 361.67 666.16 369.91 657.94 372.28 C 650.33 374.09 643.13 368.38 640.53 361.57 C 638.72 352.28 637.82 342.36 641.32 333.34 C 643.50 327.96 645.84 322.23 650.32 318.35 M 648.06 338.08 C 646.18 345.25 647.64 352.68 648.57 359.88 C 648.97 362.20 649.92 365.72 653.00 365.24 C 657.69 364.40 661.10 360.66 663.64 356.88 C 666.23 346.60 663.25 335.91 658.08 326.94 C 657.41 325.57 656.01 324.84 654.89 323.92 C 651.50 328.00 649.44 333.01 648.06 338.08 Z" />
<path fill="#ffffff" opacity="1.00" d=" M 521.94 318.86 C 524.09 319.99 527.10 320.94 527.14 323.89 C 528.14 331.56 528.59 339.29 529.09 347.00 C 531.02 354.92 530.27 363.33 527.63 370.99 C 525.96 370.81 524.29 370.63 522.64 370.45 C 521.50 369.24 520.36 368.04 519.21 366.85 C 517.66 360.20 520.45 353.67 520.24 347.00 C 520.38 340.66 520.01 334.33 519.55 328.01 C 519.13 324.73 520.58 321.73 521.94 318.86 Z" />
<path fill="#ffffff" opacity="1.00" d=" M 553.08 326.00 C 555.71 320.14 563.07 318.07 568.97 319.14 C 574.81 320.76 580.05 325.17 581.81 331.09 C 584.99 340.73 581.65 351.12 576.25 359.27 C 573.55 363.13 570.43 366.88 566.33 369.31 C 562.88 371.31 558.74 370.73 554.94 370.83 C 553.80 369.67 552.65 368.53 551.50 367.40 C 551.36 364.28 551.23 361.10 552.30 358.11 C 550.61 352.88 551.46 347.36 551.60 341.98 C 551.98 336.66 551.62 331.18 553.08 326.00 M 559.87 328.92 C 560.07 339.90 560.80 350.86 560.99 361.84 C 570.42 355.85 575.65 344.23 573.87 333.21 C 573.18 330.69 572.49 327.39 569.70 326.42 C 566.22 325.63 562.85 327.32 559.87 328.92 Z" />
<path fill="#ffffff" opacity="1.00" d=" M 606.12 320.11 C 610.53 321.33 615.38 317.87 619.32 321.00 C 618.16 324.78 614.17 325.11 610.83 325.41 C 610.05 330.53 609.67 335.70 609.20 340.85 C 612.76 340.74 616.50 340.91 619.31 343.39 C 617.11 347.06 612.56 346.96 608.85 347.74 C 608.95 353.08 609.53 358.48 611.53 363.47 C 615.18 363.04 618.74 363.93 621.75 366.03 C 619.05 369.76 614.10 369.88 609.95 370.38 C 608.65 370.39 606.70 370.45 606.15 368.99 C 604.10 364.64 601.75 360.29 601.35 355.41 C 600.39 345.88 601.82 336.32 603.20 326.91 C 603.48 324.39 604.53 322.07 606.12 320.11 Z" />
</g>
</svg>
